<svg xmlns="http://www.w3.org/2000/svg" width="104" height="77" viewBox="0 0 104 77">
    <g fill="none" fill-rule="evenodd">
        <g fill="#3D3636" fill-rule="nonzero">
            <path d="M53.88 34.304c-.511.748-1.503.92-2.216.384-.714-.535-.878-1.577-.367-2.325 4.467-6.546 8.32-10.735 11.668-12.587 1.447-.8 3.341-.999 8.724-1.206 4.04-.156 5.37-.223 7.444-.413 9.226-.846 14.157-3.286 14.78-8.484.441-2.315.014-4.332-1.301-6.173-.527-.736-.384-1.781.317-2.333.702-.553 1.698-.403 2.224.333 1.86 2.604 2.493 5.587 1.894 8.707-.863 7.24-7.045 10.3-17.638 11.27-2.146.197-3.505.265-7.604.424-4.644.179-6.555.379-7.358.823-2.807 1.553-6.365 5.42-10.567 11.58z"/>
            <path d="M92.135 18.202c-.85.218-1.73-.327-1.965-1.216-.235-.89.263-1.788 1.113-2.006l10.033-2.573c.85-.218 1.73.327 1.964 1.216.236.89-.263 1.788-1.113 2.006l-10.032 2.573zM81.143 21.88c-.856-.192-1.392-1.076-1.198-1.976.194-.9 1.046-1.473 1.902-1.281l10.107 2.262c.857.191 1.393 1.076 1.199 1.975-.195.9-1.046 1.474-1.902 1.282L81.143 21.88zM54.708 32.585c-.483.768-1.468.98-2.2.473-.732-.507-.934-1.54-.451-2.31 4.74-7.538 7.884-13.038 9.418-16.458 1.503-3.351 2.517-7.075 3.039-11.177.116-.913.915-1.554 1.785-1.432.869.122 1.48.96 1.363 1.873-.564 4.433-1.668 8.486-3.313 12.156-1.615 3.6-4.823 9.212-9.64 16.875z"/>
            <path d="M62.551 19.103c-.844.252-1.722-.263-1.961-1.148-.24-.886.25-1.807 1.094-2.058 4.523-1.347 7.452-2.884 8.757-4.482 1.298-1.589 1.972-3.71 2-6.433.01-.92.729-1.659 1.606-1.649.877.01 1.58.765 1.57 1.685-.036 3.467-.95 6.346-2.764 8.567-1.807 2.212-5.23 4.008-10.302 5.518z"/>
        </g>
        <g fill="#3D3636" fill-rule="nonzero">
            <path d="M50.12 34.304c.511.748 1.503.92 2.216.384.714-.535.878-1.577.367-2.325-4.467-6.546-8.32-10.735-11.668-12.587-1.447-.8-3.341-.999-8.724-1.206-4.04-.156-5.37-.223-7.444-.413-9.226-.846-14.157-3.286-14.78-8.484-.441-2.315-.014-4.332 1.301-6.173.527-.736.384-1.781-.317-2.333-.702-.553-1.698-.403-2.224.333-1.86 2.604-2.493 5.587-1.894 8.707.863 7.24 7.045 10.3 17.638 11.27 2.146.197 3.505.265 7.604.424 4.644.179 6.555.379 7.358.823 2.807 1.553 6.365 5.42 10.567 11.58z"/>
            <path d="M11.865 18.202c.85.218 1.73-.327 1.965-1.216.235-.89-.263-1.788-1.113-2.006L2.684 12.407c-.85-.218-1.73.327-1.964 1.216-.236.89.263 1.788 1.113 2.006l10.032 2.573zM22.857 21.88c.856-.192 1.392-1.076 1.198-1.976-.194-.9-1.046-1.473-1.902-1.281l-10.107 2.262c-.857.191-1.393 1.076-1.199 1.975.195.9 1.046 1.474 1.902 1.282l10.108-2.262zM49.292 32.585c.483.768 1.468.98 2.2.473.732-.507.934-1.54.451-2.31-4.74-7.538-7.884-13.038-9.418-16.458-1.503-3.351-2.517-7.075-3.039-11.177-.116-.913-.915-1.554-1.785-1.432-.869.122-1.48.96-1.363 1.873.564 4.433 1.668 8.486 3.313 12.156 1.615 3.6 4.823 9.212 9.64 16.875z"/>
            <path d="M41.449 19.103c.844.252 1.722-.263 1.961-1.148.24-.886-.25-1.807-1.094-2.058-4.523-1.347-7.452-2.884-8.757-4.482-1.298-1.589-1.972-3.71-2-6.433-.01-.92-.729-1.659-1.606-1.649-.877.01-1.58.765-1.57 1.685.036 3.467.95 6.346 2.764 8.567 1.807 2.212 5.23 4.008 10.302 5.518z"/>
        </g>
        <path fill="#3D3636" stroke="#3D3636" d="M44.833 58.333c-2.516 0-4.718.363-6.605 1.09-1.888.725-4.876 3.084-8.965 7.077-1.865-.412-3.123-.957-3.774-1.633-.652-.677-.652-2.129 0-4.356h4.718c.247.807.405 1.442.472 1.906.067.463.067.917 0 1.36l14.154-5.444z"/>
        <path fill="#FF4E00" d="M57.667 38.63l4.537 1.037 3.63-3.63L61.295 35l-3.63 2.333"/>
        <path fill="#FF4E00" d="M45.442 65.08L39 77h35L57.9 35H46.445C41.482 46.548 39 53.79 39 56.724c0 1.925 2.482 3.531 7.445 4.818l8.019-11.335"/>
    </g>
</svg>
