<svg xmlns="http://www.w3.org/2000/svg" width="379" height="465" viewBox="0 0 379 465">
    <g fill="none" fill-rule="evenodd">
        <ellipse cx="189.5" cy="187.5" fill="#FF4E00" rx="189.5" ry="187.5"/>
        <g fill="#3D3636" fill-rule="nonzero">
            <path d="M190.572 163.19c-1.343 1.945-3.951 2.393-5.827 1-1.875-1.393-2.307-4.1-.964-6.046 11.745-17.02 21.88-27.911 30.683-32.727 3.803-2.081 8.786-2.596 22.94-3.136 10.625-.406 14.123-.58 19.575-1.074 24.26-2.199 37.227-8.543 38.867-22.057 1.16-6.02.037-11.264-3.422-16.05-1.384-1.915-1.01-4.63.835-6.067 1.845-1.436 4.463-1.048 5.847.867 4.893 6.77 6.554 14.525 4.98 22.637-2.269 18.826-18.524 26.78-46.38 29.304-5.645.512-9.218.69-19.995 1.1-12.212.467-17.238.986-19.351 2.142-7.38 4.038-16.736 14.092-27.788 30.106z"/>
            <path d="M291.158 121.376c-2.235.575-4.54-.834-5.15-3.148-.61-2.314.708-4.656 2.942-5.23l26.374-6.79c2.234-.576 4.54.834 5.149 3.147.61 2.314-.708 4.656-2.942 5.231l-26.373 6.79zM262.271 130.866c-2.252-.502-3.666-2.804-3.159-5.143.508-2.338 2.744-3.827 4.996-3.325l26.582 5.924c2.252.502 3.666 2.804 3.159 5.142-.508 2.339-2.744 3.828-4.996 3.326l-26.582-5.924zM192.75 158.72c-1.27 1.997-3.86 2.548-5.785 1.23-1.926-1.318-2.457-4.005-1.186-6.003 12.463-19.6 20.733-33.901 24.766-42.792 3.952-8.714 6.618-18.396 7.992-29.062.305-2.372 2.406-4.038 4.693-3.721 2.286.317 3.892 2.497 3.586 4.869-1.484 11.524-4.387 22.064-8.714 31.604-4.246 9.363-12.682 23.951-25.351 43.875z"/>
            <path d="M213.375 123.669c-2.219.653-4.528-.684-5.158-2.986-.63-2.302.66-4.698 2.878-5.352 11.892-3.501 19.597-7.498 23.028-11.651 3.413-4.131 5.185-9.647 5.26-16.727.025-2.393 1.915-4.312 4.222-4.286 2.306.026 4.155 1.987 4.13 4.38-.095 9.014-2.5 16.499-7.27 22.273-4.752 5.753-13.753 10.422-27.09 14.349z"/>
        </g>
        <g fill="#3D3636" fill-rule="nonzero">
            <path d="M184.428 163.19c1.343 1.945 3.951 2.393 5.827 1 1.875-1.393 2.307-4.1.964-6.046-11.745-17.02-21.88-27.911-30.683-32.727-3.803-2.081-8.786-2.596-22.94-3.136-10.625-.406-14.123-.58-19.575-1.074-24.26-2.199-37.227-8.543-38.867-22.057-1.16-6.02-.037-11.264 3.422-16.05 1.384-1.915 1.01-4.63-.835-6.067-1.845-1.436-4.463-1.048-5.847.867-4.893 6.77-6.554 14.525-4.98 22.637 2.269 18.826 18.524 26.78 46.38 29.304 5.645.512 9.218.69 19.995 1.1 12.212.467 17.238.986 19.351 2.142 7.38 4.038 16.736 14.092 27.788 30.106z"/>
            <path d="M83.842 121.376c2.235.575 4.54-.834 5.15-3.148.61-2.314-.708-4.656-2.942-5.23l-26.374-6.79c-2.234-.576-4.54.834-5.149 3.147-.61 2.314.708 4.656 2.942 5.231l26.373 6.79zM112.729 130.866c2.252-.502 3.666-2.804 3.159-5.143-.508-2.338-2.744-3.827-4.996-3.325l-26.582 5.924c-2.252.502-3.666 2.804-3.159 5.142.508 2.339 2.744 3.828 4.996 3.326l26.582-5.924zM182.25 158.72c1.27 1.997 3.86 2.548 5.785 1.23 1.926-1.318 2.457-4.005 1.186-6.003-12.463-19.6-20.733-33.901-24.766-42.792-3.952-8.714-6.618-18.396-7.992-29.062-.305-2.372-2.406-4.038-4.693-3.721-2.286.317-3.892 2.497-3.586 4.869 1.484 11.524 4.387 22.064 8.714 31.604 4.246 9.363 12.682 23.951 25.351 43.875z"/>
            <path d="M161.625 123.669c2.219.653 4.528-.684 5.158-2.986.63-2.302-.66-4.698-2.878-5.352-11.892-3.501-19.597-7.498-23.028-11.651-3.413-4.131-5.185-9.647-5.26-16.727-.025-2.393-1.915-4.312-4.222-4.286-2.306.026-4.155 1.987-4.13 4.38.095 9.014 2.5 16.499 7.27 22.273 4.752 5.753 13.753 10.422 27.09 14.349z"/>
        </g>
        <path fill="#FFF" d="M200.386 180.14l17.463 4.04 13.971-14.136-17.463-4.038-13.971 9.087"/>
        <path fill="#3D3636" fill-rule="nonzero" d="M216.66 180.052l7.771-7.864-9.37-2.167-10.957 7.127 12.555 2.904zm-18.31-8.11l15.302-9.952 25.557 5.91-20.17 20.407-19.494-4.508 1.682-7.316-2.877-4.54z"/>
        <path fill="#FFF" d="M162.747 240.674l-11.757 33.6c.137 45.503 2.559 79.08 7.266 100.733 3.524 16.206 10.999 59.292 19.677 81.783 1.944 5.038 4.693 5.038 8.246 0-3.7-84.812-.762-127.218 8.818-127.218s15.119 42.406 16.615 127.218c4.491 4.543 8.233 4.543 11.227 0 4.49-20.446 11.364-68.601 13.472-81.783 2.909-18.192 4.406-51.77 4.49-100.732l-41.313-108.27h-29.393c-12.737 29.77-19.105 48.438-19.105 56.002 0 4.963 6.368 9.319 19.105 13.067l20.575-29.868"/>
        <path fill="#3D3636" fill-rule="nonzero" d="M168.575 230.676l19.016-27.604a3.735 3.735 0 0 1 5.207-.954 3.762 3.762 0 0 1 .95 5.223l-22.112 32.099-2.594-.764c-14.247-4.192-21.795-9.354-21.795-16.67 0-8.298 6.432-27.15 19.41-57.481l.972-2.274h34.433l42.483 111.333c-.086 49.85-1.59 83.573-4.54 102.017-.223 1.4-4.883 32.183-6.736 43.836-.594 3.73-1.165 7.263-1.718 10.607-1.968 11.897-3.658 21.184-5.058 27.554l-.532 1.262c-4.41 6.693-10.957 6.693-17.006.573l-1.058-1.07-.026-1.507c-1.407-79.72-7.129-123.53-12.874-123.53-5.503 0-8.545 43.886-5.079 123.3l.056 1.283-.74 1.05c-5.14 7.287-11.665 7.287-14.79-.814-3.48-9.02-6.935-21.58-10.55-37.545-2.698-11.911-9.297-44.807-9.294-44.793-4.776-21.968-7.215-55.775-7.353-101.52l11.969-34.856a3.74 3.74 0 0 1 4.77-2.3 3.757 3.757 0 0 1 2.292 4.786l-11.544 32.992c.157 44.93 2.562 78.063 7.178 99.298.018.079 6.608 32.93 9.28 44.73 3.541 15.636 6.914 27.9 10.23 36.498.132.34.26.63.38.873.155-.178.35-.408.58-.696-3.85-89.275-.974-129.794 12.615-129.794 13.337 0 18.708 40.526 20.329 129.344 1.932 1.73 2.843 1.67 4.016.096 1.334-6.19 2.952-15.116 4.825-26.443.55-3.328 1.12-6.845 1.711-10.561 1.848-11.615 6.507-42.402 6.738-43.842 2.855-17.853 4.345-51.051 4.442-99.447L196.913 169.76h-24.349c-11.853 27.895-17.832 45.596-17.832 52.247 0 2.403 4.394 5.6 13.843 8.67zm13.63 226.302c.025.031.049.059.071.083a.264.264 0 0 0-.03-.027l-.04-.056z"/>
        <path fill="#3D3636" fill-rule="nonzero" d="M134.584 230.308c6.816-2.21 14.714-3.308 23.693-3.308H174l-68.011 22.056.063-.355c12.695-10.206 22.143-16.32 28.532-18.393zm22.886-3.18l.807 4.837c-8.459 0-15.818 1.022-22.08 3.053-6.135 1.99-16.29 8.749-30.219 20.216l-.93.766-1.198-.223c-6.882-1.283-11.617-3.011-14.305-5.364-3.264-2.859-3.264-8-.71-15.363l.585-1.688h19.983l.602 1.654c.903 2.482 1.485 4.464 1.746 5.986.052.305.095.608.127.91l45.592-14.785z"/>
    </g>
</svg>
